<?xml version="1.0" encoding="utf-8"?>
<!-- Generator: Adobe Illustrator 22.1.0, SVG Export Plug-In . SVG Version: 6.00 Build 0)  -->
<svg version="1.1" id="Layer_1" xmlns="http://www.w3.org/2000/svg" x="0px" y="0px"
	 viewBox="0 0 209.1 70.4" >
<style type="text/css">
	.st0{fill:#D6B160;stroke:#D6B160;stroke-width:0.25;stroke-miterlimit:10;}
	.st1{fill:#D6B160;stroke:#D6B160;stroke-width:0.15;stroke-miterlimit:10;}
</style>
<g>
	<path class="st0" d="M199.8,38.7c0.2,0,0.3-0.1,0.3-0.3c0-0.2-0.1-0.3-0.3-0.3H193c-0.2,0-0.3,0.2-0.3,0.3c0,0.2,0.1,0.3,0.3,0.3
		h3.1v10c0,0.2,0.1,0.4,0.3,0.4c0.2,0,0.3-0.2,0.3-0.4v-10H199.8z M190.6,38.2c0-0.2-0.1-0.3-0.3-0.3c-0.2,0-0.3,0.2-0.3,0.3v9.4
		l-6.6-9.5c-0.1-0.2-0.2-0.2-0.3-0.2c-0.2,0-0.4,0.2-0.4,0.4v10.4c0,0.2,0.1,0.4,0.3,0.4c0.2,0,0.3-0.2,0.3-0.4v-9.4l6.5,9.5
		c0.1,0.2,0.2,0.2,0.4,0.2c0.2,0,0.4-0.2,0.4-0.4V38.2z M174.6,43.8h4.9c0.2,0,0.3-0.2,0.3-0.3c0-0.2-0.1-0.3-0.3-0.3h-4.9v-4.4h5.6
		c0.1,0,0.3-0.1,0.3-0.3c0-0.2-0.1-0.3-0.3-0.3h-5.9c-0.2,0-0.3,0.2-0.3,0.4v10.1c0,0.2,0.1,0.4,0.3,0.4h5.9c0.1,0,0.3-0.1,0.3-0.3
		c0-0.2-0.1-0.3-0.3-0.3h-5.6V43.8z M171.6,39.1c0-0.3-0.2-0.4-0.6-0.6c-0.6-0.3-1.3-0.6-2.4-0.6c-2.6,0-4.7,2.5-4.7,5.6
		c0,3.4,2.2,5.6,4.8,5.6c1,0,1.8-0.3,2.4-0.6c0.4-0.2,0.6-0.4,0.6-0.6c0-0.2-0.1-0.3-0.3-0.3c-0.2,0-0.4,0.3-1.1,0.6
		c-0.4,0.2-0.9,0.3-1.6,0.3c-2.2,0-4.1-2-4.1-4.9c0-2.6,1.9-4.9,4.1-4.9c0.7,0,1.2,0.1,1.6,0.3c0.6,0.3,0.9,0.6,1.1,0.6
		C171.4,39.5,171.6,39.3,171.6,39.1z M161.2,38.2c0-0.2-0.1-0.3-0.3-0.3c-0.2,0-0.3,0.2-0.3,0.3v9.4l-6.6-9.5
		c-0.1-0.2-0.2-0.2-0.3-0.2c-0.2,0-0.4,0.2-0.4,0.4v10.4c0,0.2,0.1,0.4,0.3,0.4c0.2,0,0.3-0.2,0.3-0.4v-9.4l6.5,9.5
		c0.1,0.2,0.2,0.2,0.4,0.2c0.2,0,0.4-0.2,0.4-0.4V38.2z M149.5,48.6c0,0.2,0.1,0.4,0.3,0.4c0.2,0,0.3-0.2,0.3-0.4V38.2
		c0-0.2-0.1-0.4-0.3-0.4c-0.2,0-0.3,0.2-0.3,0.4V48.6z M143.3,48l-3.3-9.8c-0.1-0.2-0.2-0.3-0.3-0.3c-0.2,0-0.3,0.2-0.3,0.4
		c0,0,0,0.1,0,0.2l3.5,10.1c0.1,0.2,0.2,0.4,0.4,0.4c0.2,0,0.4-0.2,0.4-0.4l3.5-10.1c0-0.1,0.1-0.2,0.1-0.2c0-0.2-0.1-0.4-0.3-0.4
		c-0.2,0-0.3,0.1-0.3,0.3L143.3,48z M135,48.7c0.1,0.2,0.2,0.3,0.3,0.3c0.2,0,0.3-0.1,0.3-0.4c0,0,0-0.2,0-0.2L132,38.2
		c-0.1-0.2-0.2-0.4-0.4-0.4c-0.2,0-0.4,0.2-0.4,0.4l-3.6,10.1c0,0.1-0.1,0.2-0.1,0.3c0,0.2,0.1,0.4,0.3,0.4c0.2,0,0.3-0.1,0.3-0.3
		l1-2.8h4.9L135,48.7z M131.6,38.9l2.3,6.4h-4.5L131.6,38.9z M126.1,38.2c0-0.2-0.1-0.3-0.3-0.3c-0.2,0-0.3,0.2-0.3,0.3v9.4
		l-6.6-9.5c-0.1-0.2-0.2-0.2-0.3-0.2c-0.2,0-0.4,0.2-0.4,0.4v10.4c0,0.2,0.1,0.4,0.3,0.4c0.2,0,0.3-0.2,0.3-0.4v-9.4l6.5,9.5
		c0.1,0.2,0.2,0.2,0.4,0.2c0.2,0,0.4-0.2,0.4-0.4V38.2z M110.8,43.8h4.9c0.2,0,0.3-0.2,0.3-0.3c0-0.2-0.1-0.3-0.3-0.3h-4.9v-4.4h5.6
		c0.1,0,0.3-0.1,0.3-0.3c0-0.2-0.1-0.3-0.3-0.3h-5.9c-0.2,0-0.3,0.2-0.3,0.4v10.1c0,0.2,0.1,0.4,0.3,0.4h5.9c0.1,0,0.3-0.1,0.3-0.3
		c0-0.2-0.1-0.3-0.3-0.3h-5.6V43.8z M108.2,48.7c0.1,0.2,0.2,0.3,0.3,0.3c0.2,0,0.3-0.1,0.3-0.4c0,0,0-0.2,0-0.2l-3.6-10.1
		c-0.1-0.2-0.2-0.4-0.4-0.4c-0.2,0-0.4,0.2-0.4,0.4l-3.6,10.1c0,0.1-0.1,0.2-0.1,0.3c0,0.2,0.1,0.4,0.3,0.4c0.2,0,0.3-0.1,0.3-0.3
		l1-2.8h4.9L108.2,48.7z M104.7,38.9l2.3,6.4h-4.5L104.7,38.9z M96.1,38.7c0.7,0,1.3,0,1.9,0.4c0.5,0.4,0.9,1.1,0.9,2.1
		c0,1.1-0.4,1.7-0.9,2.1c-0.5,0.4-1.1,0.4-1.9,0.4h-2.8v-5.1H96.1z M93.3,44.4h2.6l3,4.4c0.1,0.1,0.2,0.2,0.3,0.2
		c0.2,0,0.3-0.2,0.3-0.4c0-0.1,0-0.2-0.1-0.3l-2.8-4c0.7,0,1.2-0.2,1.7-0.6c0.7-0.5,1.1-1.3,1.1-2.6c0-1.3-0.4-2.1-1.1-2.6
		c-0.6-0.5-1.3-0.6-2.2-0.6h-3.3c-0.2,0-0.3,0.2-0.3,0.4v10.2c0,0.2,0.1,0.4,0.3,0.4c0.2,0,0.3-0.2,0.3-0.4V44.4z M90.6,48.7
		c0.1,0.2,0.2,0.3,0.3,0.3c0.2,0,0.3-0.1,0.3-0.4c0,0,0-0.2,0-0.2l-3.6-10.1c-0.1-0.2-0.2-0.4-0.4-0.4c-0.2,0-0.4,0.2-0.4,0.4
		l-3.6,10.1c0,0.1-0.1,0.2-0.1,0.3c0,0.2,0.1,0.4,0.3,0.4c0.2,0,0.3-0.1,0.3-0.3l1-2.8h4.9L90.6,48.7z M87.2,38.9l2.3,6.4h-4.5
		L87.2,38.9z M81.7,38.5c0.1-0.1,0.1-0.2,0.1-0.3c0-0.2-0.1-0.4-0.3-0.4c-0.1,0-0.2,0-0.3,0.1l-4.9,5.6v-5.4c0-0.2-0.1-0.4-0.3-0.4
		c-0.2,0-0.3,0.2-0.3,0.4v10.4c0,0.2,0.1,0.4,0.3,0.4c0.2,0,0.3-0.2,0.3-0.4v-4l1.1-1.3l4,5.5c0.1,0.1,0.2,0.2,0.4,0.2
		c0.2,0,0.3-0.2,0.3-0.4c0-0.1,0-0.2-0.1-0.2l-4.1-5.6L81.7,38.5z"/>
	<path class="st1" d="M167.5,53.5c0-0.1,0-0.1,0-0.2c0-0.1-0.1-0.2-0.2-0.2c-0.1,0-0.1,0-0.2,0.1l-1.9,2.8l-1.9-2.8
		c-0.1-0.1-0.1-0.1-0.2-0.1c-0.1,0-0.2,0.1-0.2,0.2c0,0.1,0,0.1,0,0.2l2,2.9v2.5c0,0.1,0.1,0.2,0.2,0.2c0.1,0,0.2-0.1,0.2-0.2v-2.5
		L167.5,53.5z M157.4,58.9c0,0.1,0.1,0.2,0.2,0.2c0.1,0,0.2-0.1,0.2-0.2v-2.6h3.8v2.6c0,0.1,0.1,0.2,0.2,0.2c0.1,0,0.2-0.1,0.2-0.2
		v-5.6c0-0.1-0.1-0.2-0.2-0.2c-0.1,0-0.2,0.1-0.2,0.2v2.6h-3.8v-2.6c0-0.1-0.1-0.2-0.2-0.2c-0.1,0-0.2,0.1-0.2,0.2V58.9z M155.8,55
		c0,0.5-0.2,1-0.6,1.2c-0.3,0.2-0.7,0.3-1.1,0.3h-1.6v-3h1.7c0.4,0,0.7,0.1,1,0.3C155.6,54.1,155.8,54.5,155.8,55 M152.3,53.2
		c-0.1,0-0.2,0.1-0.2,0.2v5.5c0,0.1,0.1,0.2,0.2,0.2c0.1,0,0.2-0.1,0.2-0.2v-2h1.7c0.5,0,0.9-0.1,1.3-0.4c0.4-0.3,0.7-0.9,0.7-1.5
		c0-0.7-0.2-1.1-0.6-1.5c-0.4-0.3-0.8-0.4-1.3-0.4H152.3z M150.8,59c0,0.1,0.1,0.2,0.2,0.2c0.1,0,0.2-0.1,0.2-0.2c0,0,0-0.1,0-0.1
		l-2.2-5.5c0-0.1-0.1-0.2-0.3-0.2c-0.1,0-0.2,0.1-0.3,0.2l-2.2,5.5c0,0.1,0,0.1,0,0.1c0,0.1,0.1,0.2,0.2,0.2c0.1,0,0.2-0.1,0.2-0.2
		l0.6-1.5h3L150.8,59z M148.7,53.7l1.4,3.5h-2.7L148.7,53.7z M143.4,53.5c0.4,0,0.8,0,1.1,0.2c0.3,0.2,0.5,0.6,0.5,1.2
		c0,0.6-0.2,0.9-0.6,1.1c-0.3,0.2-0.7,0.2-1.1,0.2h-1.7v-2.7H143.4z M141.7,56.6h1.6l1.8,2.4c0,0.1,0.1,0.1,0.2,0.1
		c0.1,0,0.2-0.1,0.2-0.2c0-0.1,0-0.1,0-0.1l-1.7-2.2c0.4,0,0.7-0.1,1-0.3c0.4-0.3,0.7-0.7,0.7-1.4c0-0.7-0.3-1.2-0.7-1.4
		c-0.4-0.2-0.8-0.3-1.3-0.3h-2c-0.1,0-0.2,0.1-0.2,0.2v5.5c0,0.1,0.1,0.2,0.2,0.2c0.1,0,0.2-0.1,0.2-0.2V56.6z M137.5,56.3
		c-0.1,0-0.2,0.1-0.2,0.2c0,0.1,0.1,0.2,0.2,0.2h1.9v1.5c-0.4,0.4-1,0.6-1.8,0.6c-1.4,0-2.5-1-2.5-2.7c0-1.4,1.1-2.6,2.5-2.6
		c0.4,0,0.6,0.1,0.9,0.1c0.5,0.2,0.6,0.3,0.7,0.3c0.1,0,0.2-0.1,0.2-0.2c0-0.1-0.1-0.2-0.4-0.3c-0.4-0.2-0.8-0.3-1.4-0.3
		c-1.6,0-2.9,1.4-2.9,3c0,1.9,1.3,3,2.9,3c0.7,0,1.3-0.3,1.8-0.6v0.4c0,0.1,0.1,0.2,0.2,0.2c0.1,0,0.2-0.1,0.2-0.2v-2.5
		c0-0.1-0.1-0.2-0.2-0.2H137.5z M133.3,56.1c0,1.4-1.1,2.6-2.5,2.6c-1.4,0-2.5-1.2-2.5-2.6c0-1.4,1.1-2.6,2.5-2.6
		C132.2,53.5,133.3,54.7,133.3,56.1 M133.7,56.1c0-1.7-1.3-3-2.9-3c-1.6,0-2.9,1.4-2.9,3c0,1.7,1.3,3,2.9,3
		C132.4,59.1,133.7,57.8,133.7,56.1 M127.5,53.5c0.1,0,0.2-0.1,0.2-0.2c0-0.1-0.1-0.2-0.2-0.2h-4.1c-0.1,0-0.2,0.1-0.2,0.2
		c0,0.1,0.1,0.2,0.2,0.2h1.9v5.4c0,0.1,0.1,0.2,0.2,0.2c0.1,0,0.2-0.1,0.2-0.2v-5.4H127.5z M122.5,56.1c0,1.4-1.1,2.6-2.5,2.6
		c-1.4,0-2.5-1.2-2.5-2.6c0-1.4,1.1-2.6,2.5-2.6C121.4,53.5,122.5,54.7,122.5,56.1 M122.9,56.1c0-1.7-1.3-3-2.9-3
		c-1.6,0-2.9,1.4-2.9,3c0,1.7,1.3,3,2.9,3C121.6,59.1,122.9,57.8,122.9,56.1 M111.2,58.9c0,0.1,0.1,0.2,0.2,0.2
		c0.1,0,0.2-0.1,0.2-0.2v-2.6h3.8v2.6c0,0.1,0.1,0.2,0.2,0.2c0.1,0,0.2-0.1,0.2-0.2v-5.6c0-0.1-0.1-0.2-0.2-0.2s-0.2,0.1-0.2,0.2
		v2.6h-3.8v-2.6c0-0.1-0.1-0.2-0.2-0.2c-0.1,0-0.2,0.1-0.2,0.2V58.9z M109.7,55c0,0.5-0.2,1-0.6,1.2c-0.3,0.2-0.7,0.3-1.1,0.3h-1.6
		v-3h1.7c0.4,0,0.7,0.1,1,0.3C109.5,54.1,109.7,54.5,109.7,55 M106.2,53.2c-0.1,0-0.2,0.1-0.2,0.2v5.5c0,0.1,0.1,0.2,0.2,0.2
		c0.1,0,0.2-0.1,0.2-0.2v-2h1.7c0.5,0,1-0.1,1.3-0.4c0.4-0.3,0.7-0.9,0.7-1.5c0-0.7-0.2-1.1-0.6-1.5c-0.4-0.3-0.8-0.4-1.3-0.4H106.2
		z"/>
</g>
</svg>
