<svg xmlns="http://www.w3.org/2000/svg" version="1.1" width="124" height="22" style=""><rect id="backgroundrect" width="100%" height="100%" x="0" y="0" fill="none" stroke="none"/>
<style type="text/css">
	.st0{fill:#D6B160;stroke:#D6B160;stroke-width:0.25;stroke-miterlimit:10;}
	.st1{fill:#D6B160;stroke:#D6B160;stroke-width:0.15;stroke-miterlimit:10;}
</style>

<g class="currentLayer" style=""><title>Layer 1</title><g id="svg_1" class="">
	<path class="st0" d="M124.10001831054689,1.000006866455081 c0.2,0 0.30000000000000004,-0.1 0.30000000000000004,-0.30000000000000004 c0,-0.2 -0.1,-0.30000000000000004 -0.30000000000000004,-0.30000000000000004 H117.30001831054688 c-0.2,0 -0.30000000000000004,0.2 -0.30000000000000004,0.30000000000000004 c0,0.2 0.1,0.30000000000000004 0.30000000000000004,0.30000000000000004 h3.1 v10 c0,0.2 0.1,0.4 0.30000000000000004,0.4 c0.2,0 0.30000000000000004,-0.2 0.30000000000000004,-0.4 v-10 H124.10001831054689 zM114.90001831054687,0.500006866455081 c0,-0.2 -0.1,-0.30000000000000004 -0.30000000000000004,-0.30000000000000004 c-0.2,0 -0.30000000000000004,0.2 -0.30000000000000004,0.30000000000000004 v9.4 l-6.6,-9.5 c-0.1,-0.2 -0.2,-0.2 -0.30000000000000004,-0.2 c-0.2,0 -0.4,0.2 -0.4,0.4 v10.4 c0,0.2 0.1,0.4 0.30000000000000004,0.4 c0.2,0 0.30000000000000004,-0.2 0.30000000000000004,-0.4 v-9.4 l6.5,9.5 c0.1,0.2 0.2,0.2 0.4,0.2 c0.2,0 0.4,-0.2 0.4,-0.4 V0.500006866455081 zM98.90001831054687,6.100006866455075 h4.9 c0.2,0 0.30000000000000004,-0.2 0.30000000000000004,-0.30000000000000004 c0,-0.2 -0.1,-0.30000000000000004 -0.30000000000000004,-0.30000000000000004 h-4.9 v-4.4 h5.6 c0.1,0 0.30000000000000004,-0.1 0.30000000000000004,-0.30000000000000004 c0,-0.2 -0.1,-0.30000000000000004 -0.30000000000000004,-0.30000000000000004 h-5.9 c-0.2,0 -0.30000000000000004,0.2 -0.30000000000000004,0.4 v10.1 c0,0.2 0.1,0.4 0.30000000000000004,0.4 h5.9 c0.1,0 0.30000000000000004,-0.1 0.30000000000000004,-0.30000000000000004 c0,-0.2 -0.1,-0.30000000000000004 -0.30000000000000004,-0.30000000000000004 h-5.6 V6.100006866455075 zM95.90001831054687,1.4000068664550795 c0,-0.30000000000000004 -0.2,-0.4 -0.6000000000000001,-0.6000000000000001 c-0.6000000000000001,-0.30000000000000004 -1.3,-0.6000000000000001 -2.4,-0.6000000000000001 c-2.6,0 -4.7,2.5 -4.7,5.6 c0,3.4 2.2,5.6 4.8,5.6 c1,0 1.8,-0.30000000000000004 2.4,-0.6000000000000001 c0.4,-0.2 0.6000000000000001,-0.4 0.6000000000000001,-0.6000000000000001 c0,-0.2 -0.1,-0.30000000000000004 -0.30000000000000004,-0.30000000000000004 c-0.2,0 -0.4,0.30000000000000004 -1.1,0.6000000000000001 c-0.4,0.2 -0.9,0.30000000000000004 -1.6,0.30000000000000004 c-2.2,0 -4.1,-2 -4.1,-4.9 c0,-2.6 1.9,-4.9 4.1,-4.9 c0.7000000000000001,0 1.2,0.1 1.6,0.30000000000000004 c0.6000000000000001,0.30000000000000004 0.9,0.6000000000000001 1.1,0.6000000000000001 C95.70001831054688,1.8000068664550781 95.90001831054687,1.6000068664550753 95.90001831054687,1.4000068664550795 zM85.50001831054686,0.500006866455081 c0,-0.2 -0.1,-0.30000000000000004 -0.30000000000000004,-0.30000000000000004 c-0.2,0 -0.30000000000000004,0.2 -0.30000000000000004,0.30000000000000004 v9.4 l-6.6,-9.5 c-0.1,-0.2 -0.2,-0.2 -0.30000000000000004,-0.2 c-0.2,0 -0.4,0.2 -0.4,0.4 v10.4 c0,0.2 0.1,0.4 0.30000000000000004,0.4 c0.2,0 0.30000000000000004,-0.2 0.30000000000000004,-0.4 v-9.4 l6.5,9.5 c0.1,0.2 0.2,0.2 0.4,0.2 c0.2,0 0.4,-0.2 0.4,-0.4 V0.500006866455081 zM73.80001831054688,10.90000686645508 c0,0.2 0.1,0.4 0.30000000000000004,0.4 c0.2,0 0.30000000000000004,-0.2 0.30000000000000004,-0.4 V0.500006866455081 c0,-0.2 -0.1,-0.4 -0.30000000000000004,-0.4 c-0.2,0 -0.30000000000000004,0.2 -0.30000000000000004,0.4 V10.90000686645508 zM67.60001831054689,10.300006866455078 l-3.3,-9.8 c-0.1,-0.2 -0.2,-0.30000000000000004 -0.30000000000000004,-0.30000000000000004 c-0.2,0 -0.30000000000000004,0.2 -0.30000000000000004,0.4 c0,0 0,0.1 0,0.2 l3.5,10.1 c0.1,0.2 0.2,0.4 0.4,0.4 c0.2,0 0.4,-0.2 0.4,-0.4 l3.5,-10.1 c0,-0.1 0.1,-0.2 0.1,-0.2 c0,-0.2 -0.1,-0.4 -0.30000000000000004,-0.4 c-0.2,0 -0.30000000000000004,0.1 -0.30000000000000004,0.30000000000000004 L67.60001831054689,10.300006866455078 zM59.300018310546875,11.000006866455081 c0.1,0.2 0.2,0.30000000000000004 0.30000000000000004,0.30000000000000004 c0.2,0 0.30000000000000004,-0.1 0.30000000000000004,-0.4 c0,0 0,-0.2 0,-0.2 L56.300018310546875,0.500006866455081 c-0.1,-0.2 -0.2,-0.4 -0.4,-0.4 c-0.2,0 -0.4,0.2 -0.4,0.4 l-3.6,10.1 c0,0.1 -0.1,0.2 -0.1,0.30000000000000004 c0,0.2 0.1,0.4 0.30000000000000004,0.4 c0.2,0 0.30000000000000004,-0.1 0.30000000000000004,-0.30000000000000004 l1,-2.8 h4.9 L59.300018310546875,11.000006866455081 zM55.90001831054687,1.2000068664550767 l2.3,6.4 h-4.5 L55.90001831054687,1.2000068664550767 zM50.40001831054687,0.500006866455081 c0,-0.2 -0.1,-0.30000000000000004 -0.30000000000000004,-0.30000000000000004 c-0.2,0 -0.30000000000000004,0.2 -0.30000000000000004,0.30000000000000004 v9.4 l-6.6,-9.5 c-0.1,-0.2 -0.2,-0.2 -0.30000000000000004,-0.2 c-0.2,0 -0.4,0.2 -0.4,0.4 v10.4 c0,0.2 0.1,0.4 0.30000000000000004,0.4 c0.2,0 0.30000000000000004,-0.2 0.30000000000000004,-0.4 v-9.4 l6.5,9.5 c0.1,0.2 0.2,0.2 0.4,0.2 c0.2,0 0.4,-0.2 0.4,-0.4 V0.500006866455081 zM35.10001831054687,6.100006866455075 h4.9 c0.2,0 0.30000000000000004,-0.2 0.30000000000000004,-0.30000000000000004 c0,-0.2 -0.1,-0.30000000000000004 -0.30000000000000004,-0.30000000000000004 h-4.9 v-4.4 h5.6 c0.1,0 0.30000000000000004,-0.1 0.30000000000000004,-0.30000000000000004 c0,-0.2 -0.1,-0.30000000000000004 -0.30000000000000004,-0.30000000000000004 h-5.9 c-0.2,0 -0.30000000000000004,0.2 -0.30000000000000004,0.4 v10.1 c0,0.2 0.1,0.4 0.30000000000000004,0.4 h5.9 c0.1,0 0.30000000000000004,-0.1 0.30000000000000004,-0.30000000000000004 c0,-0.2 -0.1,-0.30000000000000004 -0.30000000000000004,-0.30000000000000004 h-5.6 V6.100006866455075 zM32.50001831054688,11.000006866455081 c0.1,0.2 0.2,0.30000000000000004 0.30000000000000004,0.30000000000000004 c0.2,0 0.30000000000000004,-0.1 0.30000000000000004,-0.4 c0,0 0,-0.2 0,-0.2 l-3.6,-10.1 c-0.1,-0.2 -0.2,-0.4 -0.4,-0.4 c-0.2,0 -0.4,0.2 -0.4,0.4 l-3.6,10.1 c0,0.1 -0.1,0.2 -0.1,0.30000000000000004 c0,0.2 0.1,0.4 0.30000000000000004,0.4 c0.2,0 0.30000000000000004,-0.1 0.30000000000000004,-0.30000000000000004 l1,-2.8 h4.9 L32.50001831054688,11.000006866455081 zM29.000018310546878,1.2000068664550767 l2.3,6.4 h-4.5 L29.000018310546878,1.2000068664550767 zM20.40001831054687,1.000006866455081 c0.7000000000000001,0 1.3,0 1.9,0.4 c0.5,0.4 0.9,1.1 0.9,2.1 c0,1.1 -0.4,1.7000000000000002 -0.9,2.1 c-0.5,0.4 -1.1,0.4 -1.9,0.4 h-2.8 v-5.1 H20.40001831054687 zM17.600018310546872,6.700006866455077 h2.6 l3,4.4 c0.1,0.1 0.2,0.2 0.30000000000000004,0.2 c0.2,0 0.30000000000000004,-0.2 0.30000000000000004,-0.4 c0,-0.1 0,-0.2 -0.1,-0.30000000000000004 l-2.8,-4 c0.7000000000000001,0 1.2,-0.2 1.7000000000000002,-0.6000000000000001 c0.7000000000000001,-0.5 1.1,-1.3 1.1,-2.6 c0,-1.3 -0.4,-2.1 -1.1,-2.6 c-0.6000000000000001,-0.5 -1.3,-0.6000000000000001 -2.2,-0.6000000000000001 h-3.3 c-0.2,0 -0.30000000000000004,0.2 -0.30000000000000004,0.4 v10.2 c0,0.2 0.1,0.4 0.30000000000000004,0.4 c0.2,0 0.30000000000000004,-0.2 0.30000000000000004,-0.4 V6.700006866455077 zM14.90001831054687,11.000006866455081 c0.1,0.2 0.2,0.30000000000000004 0.30000000000000004,0.30000000000000004 c0.2,0 0.30000000000000004,-0.1 0.30000000000000004,-0.4 c0,0 0,-0.2 0,-0.2 l-3.6,-10.1 c-0.1,-0.2 -0.2,-0.4 -0.4,-0.4 c-0.2,0 -0.4,0.2 -0.4,0.4 l-3.6,10.1 c0,0.1 -0.1,0.2 -0.1,0.30000000000000004 c0,0.2 0.1,0.4 0.30000000000000004,0.4 c0.2,0 0.30000000000000004,-0.1 0.30000000000000004,-0.30000000000000004 l1,-2.8 h4.9 L14.90001831054687,11.000006866455081 zM11.500018310546878,1.2000068664550767 l2.3,6.4 h-4.5 L11.500018310546878,1.2000068664550767 zM6.000018310546878,0.8000068664550781 c0.1,-0.1 0.1,-0.2 0.1,-0.30000000000000004 c0,-0.2 -0.1,-0.4 -0.30000000000000004,-0.4 c-0.1,0 -0.2,0 -0.30000000000000004,0.1 l-4.9,5.6 v-5.4 c0,-0.2 -0.1,-0.4 -0.30000000000000004,-0.4 c-0.2,0 -0.30000000000000004,0.2 -0.30000000000000004,0.4 v10.4 c0,0.2 0.1,0.4 0.30000000000000004,0.4 c0.2,0 0.30000000000000004,-0.2 0.30000000000000004,-0.4 v-4 l1.1,-1.3 l4,5.5 c0.1,0.1 0.2,0.2 0.4,0.2 c0.2,0 0.30000000000000004,-0.2 0.30000000000000004,-0.4 c0,-0.1 0,-0.2 -0.1,-0.2 l-4.1,-5.6 L6.000018310546878,0.8000068664550781 z" id="svg_2"/>
	<path class="st1" d="M91.80001831054688,15.800006866455078 c0,-0.1 0,-0.1 0,-0.2 c0,-0.1 -0.1,-0.2 -0.2,-0.2 c-0.1,0 -0.1,0 -0.2,0.1 l-1.9,2.8 l-1.9,-2.8 c-0.1,-0.1 -0.1,-0.1 -0.2,-0.1 c-0.1,0 -0.2,0.1 -0.2,0.2 c0,0.1 0,0.1 0,0.2 l2,2.9 v2.5 c0,0.1 0.1,0.2 0.2,0.2 c0.1,0 0.2,-0.1 0.2,-0.2 v-2.5 L91.80001831054688,15.800006866455078 zM81.70001831054688,21.200006866455077 c0,0.1 0.1,0.2 0.2,0.2 c0.1,0 0.2,-0.1 0.2,-0.2 v-2.6 h3.8 v2.6 c0,0.1 0.1,0.2 0.2,0.2 c0.1,0 0.2,-0.1 0.2,-0.2 v-5.6 c0,-0.1 -0.1,-0.2 -0.2,-0.2 c-0.1,0 -0.2,0.1 -0.2,0.2 v2.6 h-3.8 v-2.6 c0,-0.1 -0.1,-0.2 -0.2,-0.2 c-0.1,0 -0.2,0.1 -0.2,0.2 V21.200006866455077 zM80.10001831054689,17.300006866455078 c0,0.5 -0.2,1 -0.6000000000000001,1.2 c-0.30000000000000004,0.2 -0.7000000000000001,0.30000000000000004 -1.1,0.30000000000000004 h-1.6 v-3 h1.7000000000000002 c0.4,0 0.7000000000000001,0.1 1,0.30000000000000004 C79.90001831054687,16.40000686645508 80.10001831054689,16.800006866455078 80.10001831054689,17.300006866455078 M76.60001831054689,15.500006866455081 c-0.1,0 -0.2,0.1 -0.2,0.2 v5.5 c0,0.1 0.1,0.2 0.2,0.2 c0.1,0 0.2,-0.1 0.2,-0.2 v-2 h1.7000000000000002 c0.5,0 0.9,-0.1 1.3,-0.4 c0.4,-0.30000000000000004 0.7000000000000001,-0.9 0.7000000000000001,-1.5 c0,-0.7000000000000001 -0.2,-1.1 -0.6000000000000001,-1.5 c-0.4,-0.30000000000000004 -0.8,-0.4 -1.3,-0.4 H76.60001831054689 zM75.10001831054689,21.300006866455078 c0,0.1 0.1,0.2 0.2,0.2 c0.1,0 0.2,-0.1 0.2,-0.2 c0,0 0,-0.1 0,-0.1 l-2.2,-5.5 c0,-0.1 -0.1,-0.2 -0.30000000000000004,-0.2 c-0.1,0 -0.2,0.1 -0.30000000000000004,0.2 l-2.2,5.5 c0,0.1 0,0.1 0,0.1 c0,0.1 0.1,0.2 0.2,0.2 c0.1,0 0.2,-0.1 0.2,-0.2 l0.6000000000000001,-1.5 h3 L75.10001831054689,21.300006866455078 zM73.00001831054686,16.00000686645508 l1.4,3.5 h-2.7 L73.00001831054686,16.00000686645508 zM67.70001831054688,15.800006866455078 c0.4,0 0.8,0 1.1,0.2 c0.30000000000000004,0.2 0.5,0.6000000000000001 0.5,1.2 c0,0.6000000000000001 -0.2,0.9 -0.6000000000000001,1.1 c-0.30000000000000004,0.2 -0.7000000000000001,0.2 -1.1,0.2 h-1.7000000000000002 v-2.7 H67.70001831054688 zM66.00001831054686,18.90000686645508 h1.6 l1.8,2.4 c0,0.1 0.1,0.1 0.2,0.1 c0.1,0 0.2,-0.1 0.2,-0.2 c0,-0.1 0,-0.1 0,-0.1 l-1.7000000000000002,-2.2 c0.4,0 0.7000000000000001,-0.1 1,-0.30000000000000004 c0.4,-0.30000000000000004 0.7000000000000001,-0.7000000000000001 0.7000000000000001,-1.4 c0,-0.7000000000000001 -0.30000000000000004,-1.2 -0.7000000000000001,-1.4 c-0.4,-0.2 -0.8,-0.30000000000000004 -1.3,-0.30000000000000004 h-2 c-0.1,0 -0.2,0.1 -0.2,0.2 v5.5 c0,0.1 0.1,0.2 0.2,0.2 c0.1,0 0.2,-0.1 0.2,-0.2 V18.90000686645508 zM61.800018310546875,18.600006866455075 c-0.1,0 -0.2,0.1 -0.2,0.2 c0,0.1 0.1,0.2 0.2,0.2 h1.9 v1.5 c-0.4,0.4 -1,0.6000000000000001 -1.8,0.6000000000000001 c-1.4,0 -2.5,-1 -2.5,-2.7 c0,-1.4 1.1,-2.6 2.5,-2.6 c0.4,0 0.6000000000000001,0.1 0.9,0.1 c0.5,0.2 0.6000000000000001,0.30000000000000004 0.7000000000000001,0.30000000000000004 c0.1,0 0.2,-0.1 0.2,-0.2 c0,-0.1 -0.1,-0.2 -0.4,-0.30000000000000004 c-0.4,-0.2 -0.8,-0.30000000000000004 -1.4,-0.30000000000000004 c-1.6,0 -2.9,1.4 -2.9,3 c0,1.9 1.3,3 2.9,3 c0.7000000000000001,0 1.3,-0.30000000000000004 1.8,-0.6000000000000001 v0.4 c0,0.1 0.1,0.2 0.2,0.2 c0.1,0 0.2,-0.1 0.2,-0.2 v-2.5 c0,-0.1 -0.1,-0.2 -0.2,-0.2 H61.800018310546875 zM57.600018310546886,18.40000686645508 c0,1.4 -1.1,2.6 -2.5,2.6 c-1.4,0 -2.5,-1.2 -2.5,-2.6 c0,-1.4 1.1,-2.6 2.5,-2.6 C56.500018310546864,15.800006866455078 57.600018310546886,17.00000686645508 57.600018310546886,18.40000686645508 M58.000018310546864,18.40000686645508 c0,-1.7000000000000002 -1.3,-3 -2.9,-3 c-1.6,0 -2.9,1.4 -2.9,3 c0,1.7000000000000002 1.3,3 2.9,3 C56.70001831054688,21.40000686645508 58.000018310546864,20.100006866455075 58.000018310546864,18.40000686645508 M51.800018310546875,15.800006866455078 c0.1,0 0.2,-0.1 0.2,-0.2 c0,-0.1 -0.1,-0.2 -0.2,-0.2 h-4.1 c-0.1,0 -0.2,0.1 -0.2,0.2 c0,0.1 0.1,0.2 0.2,0.2 h1.9 v5.4 c0,0.1 0.1,0.2 0.2,0.2 c0.1,0 0.2,-0.1 0.2,-0.2 v-5.4 H51.800018310546875 zM46.800018310546875,18.40000686645508 c0,1.4 -1.1,2.6 -2.5,2.6 c-1.4,0 -2.5,-1.2 -2.5,-2.6 c0,-1.4 1.1,-2.6 2.5,-2.6 C45.70001831054688,15.800006866455078 46.800018310546875,17.00000686645508 46.800018310546875,18.40000686645508 M47.20001831054688,18.40000686645508 c0,-1.7000000000000002 -1.3,-3 -2.9,-3 c-1.6,0 -2.9,1.4 -2.9,3 c0,1.7000000000000002 1.3,3 2.9,3 C45.90001831054687,21.40000686645508 47.20001831054688,20.100006866455075 47.20001831054688,18.40000686645508 M35.50001831054688,21.200006866455077 c0,0.1 0.1,0.2 0.2,0.2 c0.1,0 0.2,-0.1 0.2,-0.2 v-2.6 h3.8 v2.6 c0,0.1 0.1,0.2 0.2,0.2 c0.1,0 0.2,-0.1 0.2,-0.2 v-5.6 c0,-0.1 -0.1,-0.2 -0.2,-0.2 s-0.2,0.1 -0.2,0.2 v2.6 h-3.8 v-2.6 c0,-0.1 -0.1,-0.2 -0.2,-0.2 c-0.1,0 -0.2,0.1 -0.2,0.2 V21.200006866455077 zM34.00001831054688,17.300006866455078 c0,0.5 -0.2,1 -0.6000000000000001,1.2 c-0.30000000000000004,0.2 -0.7000000000000001,0.30000000000000004 -1.1,0.30000000000000004 h-1.6 v-3 h1.7000000000000002 c0.4,0 0.7000000000000001,0.1 1,0.30000000000000004 C33.800018310546875,16.40000686645508 34.00001831054688,16.800006866455078 34.00001831054688,17.300006866455078 M30.500018310546878,15.500006866455081 c-0.1,0 -0.2,0.1 -0.2,0.2 v5.5 c0,0.1 0.1,0.2 0.2,0.2 c0.1,0 0.2,-0.1 0.2,-0.2 v-2 h1.7000000000000002 c0.5,0 1,-0.1 1.3,-0.4 c0.4,-0.30000000000000004 0.7000000000000001,-0.9 0.7000000000000001,-1.5 c0,-0.7000000000000001 -0.2,-1.1 -0.6000000000000001,-1.5 c-0.4,-0.30000000000000004 -0.8,-0.4 -1.3,-0.4 H30.500018310546878 z" id="svg_3"/>
</g></g></svg>